<?xml version="1.0" encoding="utf-8"?>
<!-- Generator: Adobe Illustrator 18.0.0, SVG Export Plug-In . SVG Version: 6.00 Build 0)  -->
<!DOCTYPE svg PUBLIC "-//W3C//DTD SVG 1.1 Tiny//EN" "http://www.w3.org/Graphics/SVG/1.1/DTD/svg11-tiny.dtd">
<svg version="1.1" baseProfile="tiny" id="Layer_1" xmlns="http://www.w3.org/2000/svg" xmlns:xlink="http://www.w3.org/1999/xlink"
	 x="0px" y="0px" viewBox="0 0 800 800" xml:space="preserve">
<rect fill="#292E33" width="800" height="800"/>
<g>
	<path fill="#FFFFFF" d="M634.9,285.3c-3.5,9.6-11.2,13.9-20.4,16c-16.3,3.9-32.9,4-49.5,3.3c-2.8-0.1-5.7-0.3-9.1-0.5
		c-1.2,3.2-2.3,6.1-3.3,9.1c9.2,8.5,18.4,16.5,26.9,25.2c8.4,8.5,16.4,17.3,24,26.5c3.7,4.5,6.9,9.9,9.1,15.3
		c5.1,12.4-1.5,22.3-14.8,21.6c-7.3-0.3-14.9-2.1-22-4.4c-19.1-6-36.8-14.9-54.4-24.3c-55.2-29.3-107.6-63.1-158.5-99.1
		c-33.1-23.3-65.5-47.7-96.7-73.5c-2.4-2-4.8-3.9-8.1-4c-20.8-0.8-41.6-2-62.3,1.1c-2.4,0.4-4.8,0.9-7.1,1.6c-0.5,0.1-1.1,0.7-2,1.5
		c13.1,9.5,27.6,15.2,42.7,21.6c1.3-5.9,2.7-11.3,4-17.3c9.1,0.4,17.5,0.7,26.5,1.1c-10.5,50.9,2.3,93.9,39.6,129.1
		c-4.1-35.1-10.5-69.9-12.4-105.9c5.3,2.3,8.8,5.7,12.3,8.9c0.8,0.7,0.8,2.4,0.9,3.7c4.4,33.3,8.9,66.7,13.2,100
		c0.5,3.9,2.1,6.3,5.5,8.4c27.5,18.8,72.3,16.5,101.7-9.6c3.5-3.1,6.8-6.3,10.1-9.2c24.7,14.9,49.1,29.7,73.7,44.7
		c-7.2,6.4-14.8,11.6-22.9,16c-4.7,2.5-6.9,5.6-7.9,11.1c-10.5,65.1-21.5,130-32.3,195.1c-0.3,1.5-0.3,3.1,0.5,4.8
		c24.5-73.5,48.9-146.9,73.7-221.2c3.9,2,7.3,3.7,11.1,5.7c-0.7,2.1-1.1,4-1.7,5.9C499.3,469.7,473.4,546,447.3,622
		c-1.3,3.9-1.2,6.7,1.2,10.3c4.9,7.2,9.2,15.1,14,22.9c-4.8,2.9-9.6,2-14,2.7c-4.4,0.7-8.8,0.9-13.7,1.5c-1.9,5.3-3.6,10.7-5.5,16
		c16.4,3.9,31.7-1.9,47.1-4.4c0.9,3.3-1.2,3.6-2.8,4.3c-6.4,2.5-12.7,5.1-19.2,7.3c-2.9,1.1-4.9,2.7-6,5.6c-0.4,1.1-0.9,2-1.5,2.9
		c-3.6,8.3-9.3,13.5-18.7,15.1c-22.8,4.1-45.6,8.8-68.4,13.2c-1.5,0.3-3.1,0.4-4.7,0.5c-8.8,0.7-10.4-0.3-14.3-8.5
		c-0.7-1.3-1.2-2.8-2-4.5c-12.4-0.1-17.6-8.4-20.9-18.7c-2.3-7.1-3.2-14.1-2.1-22.3c7.6,0.3,14.9,0.5,22.4,1.1
		c1.6,0.1,3.2,1.5,4.4,2.7c3.2,2.8,6.8,4,11.6,2.8c-1.6-5.1-3.1-10-4.8-15.7c-7.5,0.4-14.9,0.9-23.1,1.5
		c-2.8-20.4-4.7-40.7-7.1-61.9c4.4,1.3,7.7,2.3,11.6,3.3c-0.4-1.7-0.5-3.3-1.1-4.9c-28.9-91.6-58-183.3-87.1-274.9
		c-2.5-7.7-5.7-15.3-8.3-23.1c-5.2-16.1-7.2-32.8-7.3-49.7c0-1.6,0-3.1,0-4.7c0-0.4-0.3-0.8-0.5-1.7c-5.2-2.1-10.8-4.1-16.1-6.7
		c-9.6-4.5-19.1-9.2-28.5-14.1c-3.7-2-7.1-4.5-10.1-7.5c-10.5-9.9-8.5-22.5,4.8-28c6.8-2.8,14.4-4.5,21.7-5.3
		c12.8-1.3,25.6-1.5,38.8-2.1c-0.9-1.1-2-2.3-3.2-3.3c-15.9-14.5-31.7-28.9-44.9-46c-3.2-4.1-6.3-8.7-8.8-13.2
		c-1.6-3.1-2.8-6.5-3.3-10c-1.5-8.5,3.2-15.2,11.6-17.3c6.7-1.6,12.8-0.4,18.8,1.1c17.7,4.5,34,12.5,50,21.1
		c8.8,4.7,17.3,9.7,26.1,14.7c52.9-42.5,111.7-56.7,176-30.7c63.7,25.7,97.6,75.5,106,144.1c1.7,0.7,4.1,1.6,6.5,2.7
		c12.5,5.3,25.2,10.5,37.7,16.1c4.1,1.9,8,4.7,11.9,7.2c6.4,4,10.5,9.9,13.2,16.8C634.9,281.7,634.9,283.5,634.9,285.3z
		 M322.5,398.4c0.3,2.5,0.3,3.7,0.5,5.1c11.1,68.8,22,137.5,33.2,206.3c0.3,2,1.2,4.3,2.5,5.9c2.5,2.8,5.5,5.1,8.8,8
		c-1.3-19.3-3.9-37.7-4.9-57.6c24.5,11.3,46.4,24.4,66,42.1c11.1-68.5,22-136.3,32.9-204c-0.4-0.3-0.9-0.5-1.3-0.8
		c-4.9,3.7-10,7.1-14.7,11.1c-10.8,9.3-18.8,20.4-20.7,35.2c-0.8,6.3-3.9,8.7-10.4,8.8c-11.7,0.1-23.5,0.1-35.2,0
		c-8,0-10.1-1.9-11.6-9.6c-1.3-7.1-3.9-13.6-8-19.5C350.4,416,337.8,406.4,322.5,398.4z M303.3,182c55.6,5.9,109.7,16.1,163.5,27.6
		c0.1,0,0.4-0.1,0.5-0.1c0.1-0.1,0.3-0.3,0.8-0.8c-2.3-26.5-9.9-51.3-27.5-72.3c-16.7-19.9-37.7-31.1-64.5-28.8
		c-13.1,1.1-25.7,4.3-37.9,9.3c-2,0.8-3.9,2.1-5.3,3.7C316.9,137.6,308,158.3,303.3,182z M612.4,280.5c-5.2-3.1-9.6-6-14.5-8.5
		c-16.9-8.8-34.9-15.2-53.1-20.8c-76.7-24-155.1-39.6-234.7-49.5c-4-0.5-7.9-0.9-12.8-1.5c16.7,16.5,131.2,98.5,150,107.5
		c12.1-20.7,17.7-43.5,20.5-67.7c32.7,7.7,64.5,16.7,95.9,28.1c-0.9,6.3-1.7,12-2.7,17.7C579.3,287.2,603.6,284.8,612.4,280.5z
		 M341.7,595c0.3,0,0.4-0.1,0.7-0.1c-0.1-1.5-0.3-2.9-0.5-4.4c-5.6-33.9-11.1-67.6-16.7-101.5c-5.2-31.2-10.4-62.4-15.5-93.6
		c-0.5-3.3-2-5.3-4.8-7.3c-7.2-5.1-14.4-10.3-21.2-15.9c-4.8-3.9-8.9-8.3-13.5-12.5c-0.3,0.1-0.7,0.3-0.9,0.5
		C293.4,438.6,317.6,516.9,341.7,595z M199.8,106.9c13.9,21.5,32.5,38.1,51.2,55.2c6.8-8.9,13.3-17.5,20-26.4
		C247.7,124.7,225.2,112.8,199.8,106.9z M595.6,384.4c-12.4-21.3-30.4-37.5-48.7-54.7c-3.7,10.9-7.1,20.9-10.5,31.2
		C555.7,370.6,574.2,380.5,595.6,384.4z M385.2,646.6c0.5-0.3,0.8-0.4,0.9-0.5c11.1-14.5,12.7-31.1,9.5-48.4
		c-0.1-0.9-0.9-2.1-1.7-2.7c-6.9-4.5-14-9.1-21.3-13.9c0,2.5-0.1,4,0,5.5c1.2,12.1,2.8,24.1,3.3,36.3
		C376.1,632.1,379,639.6,385.2,646.6z M335.8,647.6c12.3-0.9,23.3-1.9,34.7-2.8c-9.3-16.1-24.3-28-39.1-32.7
		C333,624.1,334.4,635.6,335.8,647.6z M363.6,655.6c1.1,6.3,2,11.9,2.9,17.7c17.5,0.7,34.3,1.3,51.3,2c0.7-5.3,1.3-9.7,2-14.8
		c-16.5,1.5-32.1,2.9-47.7,4.3c-0.7-3.7-1.2-6.9-1.7-10.3C367.8,655,366.1,655.3,363.6,655.6z M303.3,138
		c-13.7,11.3-24.3,24.7-32.7,40.9c7.1,0.5,13.2,1.1,18.7,1.6C294,166,298.5,152.4,303.3,138z"/>
</g>
</svg>
